HIERARCHY
ROOT Hips
{
	OFFSET 0.00 0.00 0.00
	CHANNELS 6 Xposition Yposition Zposition Xrotation Yrotation Zrotation
	JOINT Spine
	{
		OFFSET 0.00000 7.53995 0.00000
		CHANNELS 3 Xrotation Yrotation Zrotation
		JOINT Head
		{
			OFFSET 0.00000 15.09381 0.00000
			CHANNELS 3 Xrotation Yrotation Zrotation
			End Site
			{
				OFFSET 0.00000 4.52755 0.00000
			}
		}
		JOINT LeftShoulder
		{
			OFFSET 0.00000 9.73893 0.00000
			CHANNELS 3 Xrotation Yrotation Zrotation
			JOINT LeftArm
			{
				OFFSET 7.08401 0.00000 0.00000
				CHANNELS 3 Xrotation Yrotation Zrotation
				JOINT LeftForeArm
				{
					OFFSET 10.25932 0.00000 0.00000
					CHANNELS 3 Yrotation Zrotation Xrotation
					JOINT LeftHand
					{
						OFFSET 9.89698 0.00000 0.00000
						CHANNELS 3 Xrotation Yrotation Zrotation
						JOINT LeftHandThumb1
						{
							OFFSET 0.00000 0.00000 0.00000
							CHANNELS 3 Xrotation Zrotation Yrotation
							End Site
							{
								OFFSET 0.00000 0.00000 3.93700
							}
						}
						End Site
						{
							OFFSET 3.93700 0.00000 0.00000
						}
					}
				}
			}
		}
		JOINT RightShoulder
		{
			OFFSET 0.00000 9.73893 0.00000
			CHANNELS 3 Xrotation Yrotation Zrotation
			JOINT RightArm
			{
				OFFSET -7.08401 0.00000 0.00000
				CHANNELS 3 Xrotation Yrotation Zrotation
				JOINT RightForeArm
				{
					OFFSET -10.25932 0.00000 0.00000
					CHANNELS 3 Yrotation Zrotation Xrotation
					JOINT RightHand
					{
						OFFSET -9.89698 0.00000 0.00000
						CHANNELS 3 Xrotation Yrotation Zrotation
						JOINT RightHandThumb1
						{
							OFFSET 0.00000 0.00000 0.00000
							CHANNELS 3 Xrotation Zrotation Yrotation
							End Site
							{
								OFFSET 0.00000 0.00000 3.93700
							}
						}
						End Site
						{
							OFFSET -3.93700 0.00000 0.00000
						}
					}
				}
			}
		}
	}
	JOINT LeftUpLeg
	{
		OFFSET 3.34548 0.00000 0.00000
		CHANNELS 3 Xrotation Yrotation Zrotation
		JOINT LeftLeg
		{
			OFFSET 0.00000 -19.11473 0.00000
			CHANNELS 3 Xrotation Yrotation Zrotation
			JOINT LeftFoot
			{
				OFFSET 0.00000 -16.04560 0.00000
				CHANNELS 3 Xrotation Yrotation Zrotation
				JOINT LeftToeBase
				{
					OFFSET 0.00000 -1.43467 5.35428
					CHANNELS 3 Xrotation Yrotation Zrotation
					End Site
					{
						OFFSET 0.00000 0.00000 2.95275
					}
				}
			}
		}
	}
	JOINT RightUpLeg
	{
		OFFSET -3.34548 0.00000 0.00000
		CHANNELS 3 Xrotation Yrotation Zrotation
		JOINT RightLeg
		{
			OFFSET 0.00000 -19.11473 0.00000
			CHANNELS 3 Xrotation Yrotation Zrotation
			JOINT RightFoot
			{
				OFFSET 0.00000 -16.04560 0.00000
				CHANNELS 3 Xrotation Yrotation Zrotation
				JOINT RightToeBase
				{
					OFFSET 0.00000 -1.43467 5.35428
					CHANNELS 3 Xrotation Yrotation Zrotation
					End Site
					{
						OFFSET 0.00000 0.00000 2.95275
					}
				}
			}
		}
	}
}
MOTION
Frames: 15
Frame Time: 0.008333
 -0.8513 37.0393 -0.5588 10.8083 -0.6673 -0.8619 -8.5330 5.7219 1.6061 0.5433 -0.0377 0.9605 -12.7744 5.6466 19.2963 -13.9805 2.6565 -20.5107 -5.4987 0.0000 35.1053 2.3428 11.1256 -11.9710 33.1476 -0.0000 26.2537 3.5048 -9.8143 -21.4195 -33.0276 -12.9816 21.0320 13.6701 -0.0000 -169.4760 0.4202 5.3923 -4.4624 32.8623 0.0000 -24.3270 -9.6975 12.4295 7.5113 7.0332 0.0000 -0.0000 -12.8021 12.9940 -16.6962 15.0343 0.0000 -0.0000 -9.6290 -7.7223 -1.2378 9.6352 -0.0000 -0.0000 -13.6542 -5.1467 5.8693 5.9264 -0.0000 0.0000
 -0.8537 37.0388 -0.5601 10.8089 -0.6531 -0.8618 -8.5296 5.7200 1.6056 0.5293 -0.0327 0.9651 -12.7956 5.6389 19.3005 -14.0282 2.6988 -20.5284 -5.5349 0.0000 35.1191 2.3200 11.0271 -11.9592 33.1476 -0.0000 26.2537 3.5101 -9.7778 -21.4323 -32.9764 -13.0280 21.0431 13.6980 -0.0000 -169.5342 0.4267 5.4419 -4.4897 32.8623 0.0000 -24.3270 -9.7029 12.4217 7.5130 7.0345 0.0000 -0.0000 -12.7904 12.9968 -16.7082 15.0160 -0.0000 -0.0000 -9.6300 -7.7273 -1.2346 9.6346 0.0000 -0.0000 -13.6575 -5.1549 5.8660 5.8852 0.0000 0.0000
 -0.8555 37.0388 -0.5619 10.8098 -0.6432 -0.8644 -8.5268 5.7211 1.6159 0.5242 -0.0195 0.9530 -12.8070 5.6437 19.2930 -14.0735 2.7164 -20.5415 -5.5415 0.0000 35.0880 2.3183 11.0080 -11.9704 33.1476 -0.0000 26.2537 3.5194 -9.7795 -21.4319 -32.9800 -13.0255 21.0565 13.7133 -0.0000 -169.5404 0.4283 5.4064 -4.5363 32.8623 0.0000 -24.3270 -9.7096 12.4125 7.5178 7.0368 -0.0000 0.0000 -12.7865 12.9945 -16.7354 15.0140 -0.0000 0.0000 -9.6315 -7.7308 -1.2312 9.6356 0.0000 -0.0000 -13.6644 -5.1587 5.8604 5.9022 -0.0000 0.0000
 -0.8580 37.0388 -0.5632 10.8125 -0.6281 -0.8692 -8.5309 5.7136 1.6241 0.5266 -0.0158 0.9506 -12.7991 5.6516 19.2830 -14.1122 2.7315 -20.5472 -5.5670 0.0000 35.0080 2.3469 11.1272 -11.9894 33.1476 -0.0000 26.2537 3.5296 -9.7833 -21.4266 -32.9885 -13.0152 21.0707 13.7235 -0.0000 -169.5510 0.4395 5.4411 -4.6245 32.8623 0.0000 -24.3270 -9.7179 12.4117 7.5251 7.0338 -0.0000 0.0000 -12.7835 12.9747 -16.7158 15.0139 -0.0000 -0.0000 -9.6304 -7.7332 -1.2249 9.6301 -0.0000 -0.0000 -13.6500 -5.1933 5.8732 5.8651 -0.0000 0.0000
 -0.8610 37.0387 -0.5649 10.8165 -0.6166 -0.8718 -8.5326 5.7144 1.6337 0.5257 0.0024 0.9420 -12.8094 5.6548 19.2804 -14.1658 2.7644 -20.5656 -5.5923 0.0000 35.0205 2.3712 11.1066 -12.1318 33.1476 -0.0000 26.2537 3.5229 -9.7824 -21.4365 -32.9711 -13.0217 21.0928 13.7490 -0.0000 -169.5706 0.4475 5.4403 -4.7098 32.8623 0.0000 -24.3270 -9.7252 12.3980 7.5301 7.0301 0.0000 0.0000 -12.7783 12.9757 -16.7148 15.0130 0.0000 -0.0000 -9.6339 -7.7405 -1.2181 9.6269 -0.0000 0.0000 -13.6657 -5.1713 5.8450 5.9065 0.0000 0.0000
 -0.8626 37.0386 -0.5656 10.8132 -0.6114 -0.8684 -8.5228 5.7175 1.6331 0.5270 0.0244 0.9200 -12.8144 5.6759 19.2768 -14.2070 2.7807 -20.5821 -5.6319 0.0000 34.9076 2.3649 11.0941 -12.1132 33.1476 -0.0000 26.2537 3.5256 -9.7932 -21.4227 -32.9787 -13.0027 21.1047 13.7583 -0.0000 -169.5708 0.4484 5.3895 -4.7636 32.8623 0.0000 -24.3270 -9.7204 12.4025 7.5284 7.0224 0.0000 -0.0000 -12.7714 12.9768 -16.7367 15.0440 0.0000 -0.0000 -9.6291 -7.7423 -1.2196 9.6233 0.0000 -0.0000 -13.6692 -5.1719 5.8526 5.9223 0.0000 -0.0000
 -0.8645 37.0384 -0.5664 10.8135 -0.6037 -0.8682 -8.5254 5.7219 1.6395 0.5345 0.0305 0.9200 -12.8015 5.6902 19.2692 -14.3498 2.8261 -20.5959 -5.6478 0.0000 34.9266 2.3583 11.0644 -12.1117 33.1476 -0.0000 26.2537 3.5284 -9.7896 -21.4210 -32.9647 -13.0028 21.1128 13.7757 -0.0000 -169.5808 0.4565 5.4033 -4.8360 32.8623 0.0000 -24.3270 -9.7164 12.3915 7.5288 7.0090 -0.0000 0.0000 -12.7516 12.9703 -16.7405 14.9999 -0.0000 0.0000 -9.6277 -7.7444 -1.2172 9.6197 -0.0000 -0.0000 -13.6650 -5.1778 5.8604 5.9283 0.0000 -0.0000
 -0.8673 37.0380 -0.5680 10.8143 -0.5932 -0.8686 -8.5214 5.7197 1.6475 0.5298 0.0435 0.9144 -12.7926 5.7097 19.2570 -14.3738 2.8567 -20.6114 -5.7101 0.0000 34.8187 2.3836 11.1442 -12.1539 33.1476 -0.0000 26.2537 3.5113 -9.8249 -21.4181 -32.9713 -12.9561 21.1451 13.7838 -0.0000 -169.5704 0.4606 5.4246 -4.8608 32.8623 0.0000 -24.3270 -9.7191 12.3887 7.5316 7.0038 -0.0000 -0.0000 -12.7568 12.9668 -16.7399 15.0152 0.0000 0.0000 -9.6292 -7.7418 -1.2126 9.6195 0.0000 0.0000 -13.6710 -5.1864 5.8297 5.8860 -0.0000 0.0000
 -0.8692 37.0374 -0.5688 10.8183 -0.5882 -0.8694 -8.5237 5.7328 1.6617 0.5235 0.0449 0.8982 -12.7992 5.7146 19.2443 -14.4295 2.9356 -20.6349 -5.8272 0.0000 34.7296 2.4201 11.3218 -12.1492 33.1476 -0.0000 26.2537 3.5197 -9.8023 -21.4333 -32.9526 -13.0120 21.1451 13.8189 -0.0000 -169.5708 0.4685 5.4503 -4.9207 32.8623 0.0000 -24.3270 -9.7087 12.3767 7.5346 6.9681 0.0000 -0.0000 -12.7358 12.9674 -16.7833 15.0105 -0.0000 -0.0000 -9.6347 -7.7481 -1.2105 9.6241 -0.0000 -0.0000 -13.6781 -5.1860 5.8341 5.8631 -0.0000 0.0000
 -0.8724 37.0366 -0.5702 10.8268 -0.5764 -0.8723 -8.5226 5.7326 1.6746 0.4992 0.0584 0.8851 -12.7979 5.7435 19.2692 -14.4798 3.0129 -20.7221 -5.9944 0.0000 34.4825 2.5945 11.9744 -12.3201 33.1476 -0.0000 26.2537 3.5114 -9.8250 -21.4408 -32.9928 -13.0372 21.1690 13.8713 -0.0000 -169.5091 0.4721 5.4883 -4.9236 32.8623 0.0000 -24.3270 -9.7168 12.3522 7.5390 6.9623 -0.0000 -0.0000 -12.7336 12.9821 -16.7796 15.0287 0.0000 0.0000 -9.6425 -7.7565 -1.2042 9.6231 -0.0000 0.0000 -13.6938 -5.1904 5.8308 5.9356 0.0000 -0.0000
 -0.8750 37.0363 -0.5720 10.8326 -0.5747 -0.8728 -8.5238 5.7403 1.6877 0.4874 0.0714 0.8749 -12.8027 5.7553 19.2482 -14.5318 3.1007 -20.7407 -6.1303 0.0000 34.3092 2.5872 12.0639 -12.1994 33.1476 -0.0000 26.2537 3.5094 -9.8263 -21.4392 -32.9817 -13.0439 21.1825 13.9045 -0.0000 -169.4999 0.4750 5.4799 -4.9616 32.8623 0.0000 -24.3270 -9.7210 12.3468 7.5411 6.9532 0.0000 0.0000 -12.7306 12.9831 -16.7685 15.0006 -0.0000 -0.0000 -9.6524 -7.7573 -1.2005 9.6282 -0.0000 -0.0000 -13.7026 -5.1868 5.8173 5.9205 -0.0000 -0.0000
 -0.8772 37.0360 -0.5729 10.8343 -0.5730 -0.8735 -8.5231 5.7501 1.7008 0.4801 0.0820 0.8750 -12.7862 5.7674 19.2159 -14.6581 3.2308 -20.7487 -6.3010 0.0000 34.1276 2.5710 12.1083 -12.0829 33.1476 -0.0000 26.2537 3.5033 -9.8268 -21.4306 -32.9747 -13.0522 21.1891 13.9366 -0.0000 -169.5164 0.4760 5.4769 -4.9745 32.8623 0.0000 -24.3270 -9.7205 12.3451 7.5444 6.9427 0.0000 0.0000 -12.7269 12.9897 -16.7633 15.0244 -0.0000 0.0000 -9.6594 -7.7717 -1.1978 9.6366 -0.0000 0.0000 -13.6975 -5.1752 5.8274 5.8877 0.0000 0.0000
 -0.8797 37.0359 -0.5746 10.8389 -0.5659 -0.8795 -8.5202 5.7576 1.7218 0.4647 0.0940 0.8610 -12.7983 5.7760 19.1784 -14.7671 3.3840 -20.7599 -6.5360 0.0000 33.8587 2.5445 12.1432 -11.9288 33.1476 -0.0000 26.2537 3.4868 -9.8343 -21.4253 -32.9557 -13.0562 21.2058 13.9726 -0.0000 -169.5650 0.4729 5.4689 -4.9494 32.8623 0.0000 -24.3270 -9.7272 12.3319 7.5519 6.9370 -0.0000 0.0000 -12.7189 12.9976 -16.7813 15.0200 0.0000 -0.0000 -9.6667 -7.7687 -1.1901 9.6424 -0.0000 0.0000 -13.7086 -5.1740 5.8179 5.9355 0.0000 -0.0000
 -0.8822 37.0357 -0.5759 10.8371 -0.5657 -0.8820 -8.5124 5.7710 1.7367 0.4516 0.0988 0.8535 -12.7828 5.7806 19.1329 -14.8271 3.5726 -20.7632 -6.8529 0.0000 33.4080 2.4322 11.9941 -11.5519 33.1476 -0.0000 26.2537 3.4811 -9.8232 -21.4031 -32.9357 -13.0875 21.1987 14.0423 -0.0000 -169.6278 0.4801 5.5371 -4.9629 32.8623 0.0000 -24.3270 -9.7260 12.3310 7.5575 6.9304 0.0000 -0.0000 -12.7116 12.9969 -16.7714 14.9892 -0.0000 0.0000 -9.6682 -7.7751 -1.1841 9.6450 0.0000 -0.0000 -13.7038 -5.1673 5.8092 5.9039 0.0000 -0.0000
 -0.8848 37.0353 -0.5778 10.8374 -0.5611 -0.8885 -8.5019 5.7817 1.7619 0.4260 0.1033 0.8398 -12.7621 5.7986 19.0886 -15.0462 3.8465 -20.7874 -7.2558 0.0000 32.7786 2.4176 12.1729 -11.3225 33.1476 -0.0000 26.2537 3.4711 -9.8376 -21.3804 -32.9172 -13.0876 21.2064 14.1086 -0.0000 -169.6784 0.4769 5.5887 -4.8848 32.8623 0.0000 -24.3270 -9.7359 12.3331 7.5684 6.9378 0.0000 -0.0000 -12.7159 12.9921 -16.7882 15.0094 0.0000 -0.0000 -9.6720 -7.7747 -1.1745 9.6517 0.0000 0.0000 -13.7038 -5.1811 5.8272 5.9220 0.0000 -0.0000
